<svg width="30" height="30" viewBox="0 0 30 30" fill="none" xmlns="http://www.w3.org/2000/svg">
<rect width="30" height="30" rx="5" fill="#00FF4C"/>
<path d="M2 15.4082C2.04226 15.4082 2.08452 15.4082 3.33185 15.4263C4.57917 15.4443 7.03028 15.4805 9.8118 15.4082" stroke="white" stroke-width="2" stroke-linecap="round"/>
<path d="M5.71484 11.8555C5.71484 11.891 5.71484 11.9265 5.71484 13.0461C5.71484 14.1656 5.71484 16.3681 6.09903 18.8527" stroke="white" stroke-width="2" stroke-linecap="round"/>
<path d="M10.8359 11.6406C11.1753 11.3908 12.7031 9.82345 13.3965 8.73619C13.4801 8.60514 13.4817 8.44984 13.5035 8.60755C13.5253 9.22707 13.483 9.84498 13.419 11.7122C13.3972 13.4372 13.3972 16.741 13.3972 20.1449" stroke="white" stroke-width="2" stroke-linecap="round"/>
<path d="M10.0703 20.5762C10.1548 20.5762 11.6352 20.5762 13.8968 20.5939C14.7215 20.6117 14.8906 20.6472 15.2946 20.6655C15.6987 20.6838 16.3326 20.6838 16.9857 20.6838" stroke="white" stroke-width="2" stroke-linecap="round"/>
<path d="M24.9224 9.80942C24.5408 9.48862 23.4344 8.77168 22.5136 8.42881C21.4346 8.02703 19.718 8.51547 18.9919 8.94661C18.5568 9.20495 18.1364 9.37774 17.9021 9.61027C17.4123 10.0962 17.5384 10.9182 17.5371 12.0658C17.5363 12.8079 18.3887 13.3231 19.2416 13.7376C19.9204 14.0674 20.7783 14.0077 21.4622 14.1149C22.2691 14.2413 23.2115 14.2941 23.8954 14.4378C24.5792 14.5815 25.2605 14.7957 25.9232 15.1009C26.56 15.3941 26.7998 16.0143 26.9497 16.7668C27.1106 17.575 26.8447 18.3116 26.5892 18.7056C26.1229 19.4247 25.2247 19.8553 24.5197 20.1249C23.7688 20.4122 22.2869 20.4667 21.1901 20.288C20.4036 20.1599 19.718 19.823 19.1827 19.2847C18.7767 18.7454 18.4771 18.3869 18.3919 18.0828C18.349 17.9208 18.3067 17.7432 18.2632 17.5602" stroke="white" stroke-width="2" stroke-linecap="round"/>
<path d="M20.5703 5.93555C20.5703 7.64179 20.6548 11.1716 20.7195 11.9429C20.7845 12.7186 20.911 13.4323 21.0819 14.0071C21.1671 14.2935 21.2106 14.9727 21.2318 15.8511C21.3387 18.2259 21.3809 21.9376 21.445 22.4199C21.4667 22.7246 21.4667 23.1509 21.4667 23.5901" stroke="white" stroke-width="2" stroke-linecap="round"/>
</svg>
